<svg xmlns="http://www.w3.org/2000/svg" viewBox="0 0 400 250" style="background: linear-gradient(135deg, #667eea 0%, #764ba2 100%);">
  <defs>
    <linearGradient id="phoneGrad" x1="0%" y1="0%" x2="100%" y2="100%">
      <stop offset="0%" style="stop-color:#ffffff;stop-opacity:1" />
      <stop offset="100%" style="stop-color:#f8f9fa;stop-opacity:1" />
    </linearGradient>
    <linearGradient id="socialGrad" x1="0%" y1="0%" x2="100%" y2="100%">
      <stop offset="0%" style="stop-color:#e91e63;stop-opacity:1" />
      <stop offset="100%" style="stop-color:#9c27b0;stop-opacity:1" />
    </linearGradient>
  </defs>
  
  <!-- Background -->
  <rect width="400" height="250" fill="url(#phoneGrad)" opacity="0.1"/>
  
  <!-- Mobile Phone -->
  <rect x="160" y="40" width="80" height="140" rx="12" fill="#2c3e50" stroke="#34495e" stroke-width="2"/>
  <rect x="170" y="55" width="60" height="110" rx="4" fill="url(#phoneGrad)"/>
  
  <!-- Phone Screen Content -->
  <!-- Header -->
  <rect x="175" y="60" width="50" height="8" rx="1" fill="#e91e63"/>
  
  <!-- Social Media Icons -->
  <circle cx="185" cy="80" r="6" fill="#1877f2"/>
  <text x="185" y="84" text-anchor="middle" fill="#ffffff" font-family="Arial, sans-serif" font-size="8" font-weight="bold">f</text>
  
  <circle cx="200" cy="80" r="6" fill="#e4405f"/>
  <rect x="197" y="77" width="6" height="6" rx="1" fill="#ffffff"/>
  <circle cx="200" cy="80" r="2" fill="#e4405f"/>
  
  <circle cx="215" cy="80" r="6" fill="#1da1f2"/>
  <path d="M212 78 Q218 78 218 82 Q215 84 212 82" fill="#ffffff"/>
  
  <!-- Post Content -->
  <rect x="175" y="95" width="50" height="3" rx="1" fill="#6c757d"/>
  <rect x="175" y="102" width="40" height="3" rx="1" fill="#6c757d"/>
  <rect x="175" y="109" width="45" height="3" rx="1" fill="#6c757d"/>
  
  <!-- Engagement Icons -->
  <circle cx="180" cy="120" r="3" fill="#e91e63"/>
  <text x="180" y="123" text-anchor="middle" fill="#ffffff" font-family="Arial, sans-serif" font-size="4">♥</text>
  
  <circle cx="190" cy="120" r="3" fill="#0066CC"/>
  <text x="190" y="123" text-anchor="middle" fill="#ffffff" font-family="Arial, sans-serif" font-size="4">↗</text>
  
  <circle cx="200" cy="120" r="3" fill="#28a745"/>
  <text x="200" y="123" text-anchor="middle" fill="#ffffff" font-family="Arial, sans-serif" font-size="4">💬</text>
  
  <!-- Analytics Chart -->
  <rect x="175" y="135" width="50" height="25" rx="2" fill="#f8f9fa" stroke="#dee2e6" stroke-width="0.5"/>
  
  <!-- Chart Lines -->
  <polyline points="180,155 185,150 190,145 195,140 200,138 205,142 210,140 215,138 220,135" 
            fill="none" stroke="url(#socialGrad)" stroke-width="2"/>
  
  <!-- Floating Social Elements -->
  <circle cx="80" cy="70" r="15" fill="#ffffff" opacity="0.9"/>
  <text x="80" y="76" text-anchor="middle" fill="#1877f2" font-family="Arial, sans-serif" font-size="12" font-weight="bold">f</text>
  
  <circle cx="320" cy="90" r="15" fill="#ffffff" opacity="0.9"/>
  <rect x="312" y="82" width="16" height="16" rx="3" fill="#e4405f"/>
  <circle cx="320" cy="90" r="5" fill="#ffffff"/>
  <circle cx="320" cy="90" r="3" fill="#e4405f"/>
  
  <circle cx="100" cy="160" r="15" fill="#ffffff" opacity="0.9"/>
  <path d="M95 155 Q105 155 105 165 Q100 170 95 165" fill="#1da1f2"/>
  
  <circle cx="300" cy="170" r="15" fill="#ffffff" opacity="0.9"/>
  <rect x="292" y="162" width="16" height="16" rx="2" fill="#ff0000"/>
  <polygon points="300,167 297,170 303,170" fill="#ffffff"/>
  
  <!-- Engagement Metrics -->
  <rect x="50" y="120" width="60" height="30" rx="5" fill="#ffffff" opacity="0.8"/>
  <text x="80" y="135" text-anchor="middle" fill="#28a745" font-family="Arial, sans-serif" font-size="10" font-weight="bold">+250%</text>
  <text x="80" y="145" text-anchor="middle" fill="#6c757d" font-family="Arial, sans-serif" font-size="8">Engagement</text>
  
  <rect x="290" y="120" width="60" height="30" rx="5" fill="#ffffff" opacity="0.8"/>
  <text x="320" y="135" text-anchor="middle" fill="#e91e63" font-family="Arial, sans-serif" font-size="10" font-weight="bold">10K</text>
  <text x="320" y="145" text-anchor="middle" fill="#6c757d" font-family="Arial, sans-serif" font-size="8">Followers</text>
  
  <!-- Title -->
  <text x="200" y="230" text-anchor="middle" fill="#ffffff" font-family="Arial, sans-serif" font-size="14" font-weight="bold">Social Media Marketing</text>
</svg>