<svg width="400" height="250" viewBox="0 0 400 250" xmlns="http://www.w3.org/2000/svg">
  <defs>
    <linearGradient id="seoBg" x1="0%" y1="0%" x2="100%" y2="100%">
      <stop offset="0%" style="stop-color:#003366;stop-opacity:1" />
      <stop offset="100%" style="stop-color:#004080;stop-opacity:1" />
    </linearGradient>
    <linearGradient id="searchGradient" x1="0%" y1="0%" x2="100%" y2="100%">
      <stop offset="0%" style="stop-color:#00D4FF;stop-opacity:1" />
      <stop offset="100%" style="stop-color:#0099CC;stop-opacity:1" />
    </linearGradient>
  </defs>
  
  <!-- Background -->
  <rect width="400" height="250" fill="url(#seoBg)"/>
  
  <!-- Search Bar -->
  <rect x="50" y="80" width="300" height="40" rx="20" fill="white" stroke="rgba(0,212,255,0.5)" stroke-width="2"/>
  <text x="70" y="105" fill="#666" font-family="Arial, sans-serif" font-size="14">Search Engine Optimization</text>
  
  <!-- Search Icon -->
  <circle cx="320" cy="100" r="12" fill="none" stroke="url(#searchGradient)" stroke-width="3"/>
  <line x1="330" y1="110" x2="340" y2="120" stroke="url(#searchGradient)" stroke-width="3" stroke-linecap="round"/>
  
  <!-- SEO Elements -->
  <g transform="translate(80, 140)">
    <!-- Ranking bars -->
    <rect x="0" y="20" width="20" height="40" fill="#00D4FF" rx="2"/>
    <rect x="30" y="10" width="20" height="50" fill="#00CC99" rx="2"/>
    <rect x="60" y="0" width="20" height="60" fill="#00FF88" rx="2"/>
    
    <!-- Keywords -->
    <rect x="120" y="10" width="60" height="20" rx="10" fill="rgba(0,212,255,0.3)" stroke="#00D4FF" stroke-width="1"/>
    <text x="150" y="23" text-anchor="middle" fill="white" font-family="Arial, sans-serif" font-size="10">Keywords</text>
    
    <rect x="120" y="35" width="50" height="20" rx="10" fill="rgba(0,204,153,0.3)" stroke="#00CC99" stroke-width="1"/>
    <text x="145" y="48" text-anchor="middle" fill="white" font-family="Arial, sans-serif" font-size="10">Links</text>
    
    <!-- Analytics arrow -->
    <path d="M 200 30 L 220 20 L 220 25 L 240 25 L 240 35 L 220 35 L 220 40 Z" fill="#00FF88"/>
  </g>
  
  <!-- Title -->
  <text x="200" y="200" text-anchor="middle" fill="white" font-family="Arial, sans-serif" font-size="18" font-weight="bold">
    SEO Optimization
  </text>
  
  <!-- Floating elements -->
  <circle cx="350" cy="50" r="15" fill="rgba(0,212,255,0.2)">
    <animate attributeName="r" values="15;20;15" dur="3s" repeatCount="indefinite"/>
  </circle>
  <circle cx="50" cy="200" r="10" fill="rgba(255,255,255,0.1)">
    <animate attributeName="opacity" values="0.1;0.3;0.1" dur="2s" repeatCount="indefinite"/>
  </circle>
</svg>